<svg width="32" height="32" viewBox="0 0 32 32" xmlns="http://www.w3.org/2000/svg">
  <!-- Cat head background -->
  <circle cx="16" cy="16" r="12" fill="#d97706" stroke="#92400e" stroke-width="2"/>
  
  <!-- Cat ears -->
  <polygon points="8,10 12,4 16,10" fill="#d97706" stroke="#92400e" stroke-width="1"/>
  <polygon points="16,10 20,4 24,10" fill="#d97706" stroke="#92400e" stroke-width="1"/>
  
  <!-- Inner ears -->
  <polygon points="10,8 12,6 14,8" fill="#f59e0b"/>
  <polygon points="18,8 20,6 22,8" fill="#f59e0b"/>
  
  <!-- Eyes -->
  <circle cx="12" cy="14" r="2" fill="#000"/>
  <circle cx="20" cy="14" r="2" fill="#000"/>
  <circle cx="12.5" cy="13.5" r="0.5" fill="#fff"/>
  <circle cx="20.5" cy="13.5" r="0.5" fill="#fff"/>
  
  <!-- Nose -->
  <polygon points="16,18 15,20 17,20" fill="#ec4899"/>
  
  <!-- Mouth -->
  <path d="M 16 20 Q 14 22 12 20" fill="none" stroke="#000" stroke-width="1" stroke-linecap="round"/>
  <path d="M 16 20 Q 18 22 20 20" fill="none" stroke="#000" stroke-width="1" stroke-linecap="round"/>
  
  <!-- Whiskers -->
  <line x1="8" y1="16" x2="11" y2="15" stroke="#000" stroke-width="1"/>
  <line x1="8" y1="18" x2="11" y2="17" stroke="#000" stroke-width="1"/>
  <line x1="21" y1="15" x2="24" y2="16" stroke="#000" stroke-width="1"/>
  <line x1="21" y1="17" x2="24" y2="18" stroke="#000" stroke-width="1"/>
</svg>
